<?xml version="1.0" encoding="UTF-8"?>
<svg id="Layer_1" xmlns="http://www.w3.org/2000/svg" version="1.1" viewBox="0 0 1920 407.58">
  <!-- Generator: Adobe Illustrator 29.7.1, SVG Export Plug-In . SVG Version: 2.1.1 Build 8)  -->
  <defs>
    <style>
      .st0 {
        isolation: isolate;
      }

      .st1 {
        fill: #fff;
      }

      .st2 {
        fill: #55b848;
      }

      .st3 {
        fill: #0c0c0c;
      }
    </style>
  </defs>
  <g>
    <path class="st3" d="M436.64,223.59v-80.38c0-47.49-38.5-85.99-85.99-85.99h-167.46c-47.49,0-85.99,38.5-85.99,85.99v80.38c0,47.49,38.5,85.99,85.99,85.99h104.27c40.6,44.05,84.06,42.29,84.06,42.29h49.9c5.68,0,8.32-7.05,4.04-10.78l-43.12-37.56c31.81-12.62,54.31-43.64,54.31-79.94h-.01ZM165.1,216.45v-66.33c0-20.15,16.33-36.48,36.48-36.48h130.69c20.15,0,36.48,16.33,36.48,36.48v66.33c0,20.15-16.33,36.48-36.48,36.48h-130.69c-20.15,0-36.48-16.33-36.48-36.48h0Z"/>
    <path class="st3" d="M738.44,223.22c0,16.41-13.3,29.71-29.71,29.71h-144.22c-16.41,0-29.71-13.3-29.71-29.71v-79.86c0-16.41,13.3-29.71,29.71-29.71h117.38c4.11,0,7.44-3.33,7.44-7.44v-41.54c0-4.11-3.33-7.44-7.44-7.44h-135.77c-43.76,0-79.23,35.47-79.23,79.23v93.91c0,43.76,35.47,79.23,79.23,79.23h180.99c43.76,0,79.23-35.47,79.23-79.23v-65.86c0-4.11-3.33-7.44-7.44-7.44h-53.02c-4.11,0-7.44,3.33-7.44,7.44v58.73-.02h0Z"/>
    <path class="st3" d="M1002.19,212.39h80.46c34.32,0,62.15-27.83,62.15-62.15v-24.63c0-37.13-30.1-67.23-67.23-67.23h-232.65c-4.74,0-8.37,4.4-7.32,9.02,3.88,17.07,14,31.14,33.38,40.73,9.23,4.57,19.54,6.54,29.83,6.54h152.35c30.02,0,30.02,42.38,0,42.38h-197.92c-6.15,0-8.98,7.67-4.29,11.66l129.85,110.58c20.7,15.97,44.94,24.64,71.46,28.59,4.76.71,9.58.95,14.4.95h44.62c5.47,0,7.82-6.94,3.48-10.26l-112.57-86.17h0Z"/>
    <path class="st3" d="M1307.48,56.35h68.07c2.6,0,5.02,1.36,6.37,3.59l143.98,237.59c3,4.96-.57,11.3-6.37,11.3h-62.34c-2.62,0-5.05-1.38-6.4-3.64l-109.52-184.2s-.02-.01-.03,0l-51.38,87.43s0,.02.01.02l-32.78,55.75h-.02l-24.06,40.95c-1.34,2.27-3.78,3.67-6.42,3.67h-60.78c-5.78,0-9.35-6.29-6.39-11.25l130.34-218.61,11.32-18.98c1.34-2.25,3.77-3.63,6.39-3.63"/>
    <path class="st2" d="M798.97,123.22h-66.82c-4.11,0-7.44-3.33-7.44-7.44v-50.74c0-4.11,3.33-7.44,7.44-7.44h66.82c4.11,0,7.44,3.33,7.44,7.44v50.74c0,4.11-3.33,7.44-7.44,7.44"/>
    <path class="st3" d="M1815.3,55.7h-70.6c-2.33,0-4.54,1.01-6.05,2.77l-85.19,98.62c-3.19,3.7-8.92,3.69-12.11,0l-85.07-98.62c-1.52-1.76-3.73-2.77-6.06-2.77h-70.54c-6.97,0-10.61,8.3-5.88,13.42l136.74,148.19c1.36,1.48,2.12,3.41,2.12,5.43v78.41c0,4.42,3.58,8,8,8h54.21c4.42,0,8-3.58,8-8l.05-78.68c0-1.83.69-3.6,1.93-4.95l136.33-148.41c4.71-5.13,1.07-13.41-5.89-13.41"/>
  </g>
  <g>
    <path class="st1" d="M440.05,1232.9v-80.38c0-47.49-38.5-85.99-85.99-85.99h-167.46c-47.49,0-85.99,38.5-85.99,85.99v80.38c0,47.49,38.5,85.99,85.99,85.99h104.27c40.6,44.05,84.06,42.29,84.06,42.29h49.9c5.68,0,8.32-7.05,4.04-10.78l-43.12-37.56c31.81-12.62,54.31-43.64,54.31-79.94h-.01ZM168.51,1225.76v-66.33c0-20.15,16.33-36.48,36.48-36.48h130.69c20.15,0,36.48,16.33,36.48,36.48v66.33c0,20.15-16.33,36.48-36.48,36.48h-130.69c-20.15,0-36.48-16.33-36.48-36.48Z"/>
    <path class="st1" d="M741.85,1232.53c0,16.41-13.3,29.71-29.71,29.71h-144.22c-16.41,0-29.71-13.3-29.71-29.71v-79.86c0-16.41,13.3-29.71,29.71-29.71h117.38c4.11,0,7.44-3.33,7.44-7.44v-41.54c0-4.11-3.33-7.44-7.44-7.44h-135.77c-43.76,0-79.23,35.47-79.23,79.23v93.91c0,43.76,35.47,79.23,79.23,79.23h180.99c43.76,0,79.23-35.47,79.23-79.23v-65.86c0-4.11-3.33-7.44-7.44-7.44h-53.02c-4.11,0-7.44,3.33-7.44,7.44v58.73-.02h0Z"/>
    <path class="st1" d="M1005.6,1221.7h80.46c34.32,0,62.15-27.83,62.15-62.15v-24.63c0-37.13-30.1-67.23-67.23-67.23h-232.65c-4.74,0-8.37,4.4-7.32,9.02,3.88,17.07,14,31.14,33.38,40.73,9.23,4.57,19.54,6.54,29.83,6.54h152.35c30.02,0,30.02,42.38,0,42.38h-197.92c-6.15,0-8.98,7.67-4.29,11.66l129.85,110.58c20.7,15.97,44.94,24.64,71.46,28.59,4.76.71,9.58.95,14.4.95h44.62c5.47,0,7.82-6.94,3.48-10.26l-112.57-86.17h0Z"/>
    <path class="st1" d="M1310.9,1065.66h68.07c2.6,0,5.02,1.36,6.37,3.59l143.98,237.59c3,4.96-.57,11.3-6.37,11.3h-62.34c-2.62,0-5.05-1.38-6.4-3.64l-109.52-184.2s-.02-.01-.03,0l-51.38,87.43s0,.02.01.02l-32.78,55.75h-.02l-24.06,40.95c-1.34,2.27-3.78,3.67-6.42,3.67h-60.78c-5.78,0-9.35-6.29-6.39-11.25l130.34-218.61,11.32-18.98c1.34-2.25,3.77-3.63,6.39-3.63"/>
    <path class="st2" d="M802.38,1132.53h-66.82c-4.11,0-7.44-3.33-7.44-7.44v-50.74c0-4.11,3.33-7.44,7.44-7.44h66.82c4.11,0,7.44,3.33,7.44,7.44v50.74c0,4.11-3.33,7.44-7.44,7.44"/>
    <path class="st1" d="M1818.71,1065.01h-70.6c-2.33,0-4.54,1.01-6.05,2.77l-85.19,98.62c-3.19,3.7-8.92,3.69-12.11,0l-85.07-98.62c-1.52-1.76-3.73-2.77-6.06-2.77h-70.54c-6.97,0-10.61,8.3-5.88,13.42l136.74,148.19c1.36,1.48,2.12,3.41,2.12,5.43v78.41c0,4.42,3.58,8,8,8h54.21c4.42,0,8-3.58,8-8l.05-78.68c0-1.83.69-3.6,1.93-4.95l136.33-148.41c4.71-5.13,1.07-13.41-5.89-13.41"/>
  </g>
  <g class="st0">
    <g class="st0">
      <path class="st1" d="M13.77,958.77l-12.06-44.43h6.79l9.01,37,10.28-37h7.11l10.03,37.13,9.14-37.13h6.79l-12.25,44.43h-7.43l-9.96-35.35-10.22,35.35h-7.24Z"/>
      <path class="st1" d="M66.77,958.77v-45.7h6.35v18.91c1.06-1.82,2.53-3.27,4.41-4.35,1.88-1.08,3.97-1.62,6.25-1.62,2.54,0,4.72.51,6.54,1.52,1.82,1.02,3.21,2.57,4.16,4.66.95,2.1,1.43,4.69,1.43,7.78v18.79h-6.28v-18.15c0-3-.62-5.29-1.87-6.85-1.25-1.57-3.12-2.35-5.62-2.35-1.69,0-3.22.41-4.57,1.24-1.35.82-2.43,2.01-3.24,3.55-.8,1.54-1.21,3.42-1.21,5.62v16.95h-6.35Z"/>
      <path class="st1" d="M107.71,920.75c-1.23,0-2.23-.38-3.01-1.14-.78-.76-1.17-1.73-1.17-2.92s.39-2.08,1.17-2.82c.78-.74,1.79-1.11,3.01-1.11s2.18.37,2.98,1.11c.8.74,1.21,1.68,1.21,2.82s-.4,2.16-1.21,2.92c-.8.76-1.8,1.14-2.98,1.14ZM104.53,958.77v-31.99h6.35v31.99h-6.35Z"/>
      <path class="st1" d="M133.16,958.77c-2.03,0-3.79-.32-5.27-.95-1.48-.63-2.62-1.69-3.43-3.17-.8-1.48-1.21-3.49-1.21-6.03v-16.5h-5.52v-5.33h5.52l.83-8.06h5.52v8.06h9.01v5.33h-9.01v16.56c0,1.82.38,3.06,1.14,3.71.76.66,2.07.98,3.94.98h3.68v5.39h-5.2Z"/>
      <path class="st1" d="M159.25,959.53c-3.05,0-5.74-.7-8.09-2.09-2.35-1.4-4.19-3.34-5.52-5.84-1.33-2.5-2-5.42-2-8.76s.65-6.27,1.94-8.79c1.29-2.52,3.13-4.48,5.52-5.9,2.39-1.42,5.15-2.13,8.28-2.13s5.82.7,8.06,2.09c2.24,1.4,3.97,3.24,5.17,5.52,1.21,2.28,1.81,4.82,1.81,7.62v1.4c0,.51-.04,1.04-.13,1.59h-26.02v-4.44h19.87c-.13-2.62-1.02-4.7-2.67-6.22-1.65-1.52-3.7-2.29-6.16-2.29-1.74,0-3.32.39-4.76,1.17-1.44.79-2.58,1.93-3.43,3.43-.85,1.5-1.27,3.4-1.27,5.68v1.78c0,2.37.42,4.36,1.27,5.96.85,1.61,1.98,2.84,3.4,3.68,1.42.85,2.99,1.27,4.73,1.27,2.03,0,3.71-.44,5.05-1.33s2.29-2.1,2.89-3.62h6.35c-.55,1.95-1.48,3.69-2.79,5.24-1.31,1.54-2.92,2.76-4.82,3.65-1.9.89-4.13,1.33-6.66,1.33Z"/>
    </g>
  </g>
  <g class="st0">
    <g class="st0">
      <path class="st1" d="M4.63-53.03v-44.43h27.61v5.2H10.98v14.41h17.83v5.08H10.98v19.74h-6.35Z"/>
      <path class="st1" d="M50.46-52.27c-2.45,0-4.61-.51-6.47-1.52-1.86-1.02-3.28-2.54-4.25-4.57-.97-2.03-1.46-4.59-1.46-7.68v-18.98h6.35v18.28c0,3.05.64,5.32,1.94,6.82,1.29,1.5,3.18,2.25,5.68,2.25,1.65,0,3.13-.4,4.44-1.21,1.31-.8,2.36-1.96,3.14-3.46.78-1.5,1.17-3.35,1.17-5.55v-17.14h6.35v31.99h-5.71l-.38-5.46c-.97,1.95-2.4,3.47-4.28,4.57-1.88,1.1-4.05,1.65-6.51,1.65Z"/>
      <path class="st1" d="M75.97-53.03v-45.7h6.35v45.7h-6.35Z"/>
      <path class="st1" d="M91.01-53.03v-45.7h6.35v45.7h-6.35Z"/>
      <path class="st1" d="M142.11-52.27c-4.32,0-8.06-.96-11.23-2.89-3.17-1.92-5.61-4.61-7.3-8.06-1.69-3.45-2.54-7.46-2.54-12.03s.85-8.53,2.54-12c1.69-3.47,4.13-6.17,7.3-8.09,3.17-1.92,6.92-2.89,11.23-2.89,5.16,0,9.38,1.25,12.66,3.74,3.28,2.5,5.34,6.01,6.19,10.54h-7.05c-.63-2.62-1.93-4.72-3.87-6.28-1.95-1.57-4.61-2.35-8-2.35-3,0-5.59.7-7.74,2.09-2.16,1.4-3.83,3.39-5.01,5.97-1.19,2.58-1.78,5.67-1.78,9.27s.59,6.7,1.78,9.3c1.18,2.6,2.86,4.59,5.01,5.97,2.16,1.38,4.74,2.06,7.74,2.06,3.38,0,6.05-.75,8-2.25,1.95-1.5,3.24-3.54,3.87-6.12h7.05c-.85,4.4-2.91,7.84-6.19,10.31-3.28,2.48-7.5,3.71-12.66,3.71Z"/>
      <path class="st1" d="M182.98-52.27c-3.05,0-5.78-.7-8.19-2.09-2.41-1.4-4.3-3.35-5.65-5.87-1.35-2.52-2.03-5.43-2.03-8.73s.69-6.34,2.06-8.85c1.37-2.52,3.27-4.47,5.68-5.87,2.41-1.4,5.12-2.09,8.12-2.09s5.75.7,8.12,2.09c2.37,1.4,4.25,3.34,5.65,5.84,1.4,2.5,2.09,5.44,2.09,8.82s-.7,6.27-2.09,8.79c-1.4,2.52-3.29,4.47-5.68,5.87-2.39,1.4-5.09,2.09-8.09,2.09ZM182.92-57.73c1.69,0,3.25-.42,4.67-1.27,1.42-.85,2.57-2.12,3.46-3.81.89-1.69,1.33-3.77,1.33-6.22s-.43-4.58-1.3-6.25c-.87-1.67-2-2.93-3.4-3.78-1.4-.85-2.94-1.27-4.63-1.27s-3.26.42-4.7,1.27c-1.44.85-2.59,2.11-3.46,3.78-.87,1.67-1.3,3.76-1.3,6.25s.43,4.53,1.3,6.22c.87,1.69,2,2.96,3.4,3.81s2.94,1.27,4.63,1.27Z"/>
      <path class="st1" d="M206.28-53.03v-45.7h6.35v45.7h-6.35Z"/>
      <path class="st1" d="M236.04-52.27c-3.05,0-5.78-.7-8.19-2.09-2.41-1.4-4.3-3.35-5.65-5.87-1.35-2.52-2.03-5.43-2.03-8.73s.69-6.34,2.06-8.85c1.37-2.52,3.27-4.47,5.68-5.87,2.41-1.4,5.12-2.09,8.12-2.09s5.75.7,8.12,2.09c2.37,1.4,4.25,3.34,5.65,5.84,1.4,2.5,2.09,5.44,2.09,8.82s-.7,6.27-2.09,8.79c-1.4,2.52-3.29,4.47-5.68,5.87-2.39,1.4-5.09,2.09-8.09,2.09ZM235.98-57.73c1.69,0,3.25-.42,4.67-1.27,1.42-.85,2.57-2.12,3.46-3.81.89-1.69,1.33-3.77,1.33-6.22s-.43-4.58-1.3-6.25c-.87-1.67-2-2.93-3.4-3.78-1.4-.85-2.94-1.27-4.63-1.27s-3.26.42-4.7,1.27c-1.44.85-2.59,2.11-3.46,3.78-.87,1.67-1.3,3.76-1.3,6.25s.43,4.53,1.3,6.22c.87,1.69,2,2.96,3.4,3.81s2.94,1.27,4.63,1.27Z"/>
      <path class="st1" d="M259.34-53.03v-31.99h5.71l.51,6.03c.76-1.44,1.7-2.66,2.82-3.65,1.12-.99,2.48-1.77,4.06-2.32,1.59-.55,3.35-.83,5.3-.83v6.67h-2.28c-1.31,0-2.56.17-3.75.51-1.19.34-2.22.89-3.11,1.65-.89.76-1.6,1.79-2.13,3.08-.53,1.29-.79,2.93-.79,4.92v15.93h-6.35Z"/>
    </g>
  </g>
</svg>