<svg width="38" height="38" viewBox="0 0 38 38" fill="none" xmlns="http://www.w3.org/2000/svg">
<path opacity="0.4" d="M14.2499 15.8333C15.9988 15.8333 17.4166 14.4156 17.4166 12.6667C17.4166 10.9178 15.9988 9.5 14.2499 9.5C12.501 9.5 11.0833 10.9178 11.0833 12.6667C11.0833 14.4156 12.501 15.8333 14.2499 15.8333Z" stroke="#292D32" stroke-width="1.5" stroke-linecap="round" stroke-linejoin="round"/>
<path d="M20.5834 3.16675H14.2501C6.33341 3.16675 3.16675 6.33341 3.16675 14.2501V23.7501C3.16675 31.6667 6.33341 34.8334 14.2501 34.8334H23.7501C31.6667 34.8334 34.8334 31.6667 34.8334 23.7501V15.8334" stroke="#292D32" stroke-width="1.5" stroke-linecap="round" stroke-linejoin="round"/>
<g opacity="0.4">
<path d="M28.5 12.6667V3.16675L31.6667 6.33341" stroke="#292D32" stroke-width="1.5" stroke-linecap="round" stroke-linejoin="round"/>
<path d="M28.4999 3.16675L25.3333 6.33341" stroke="#292D32" stroke-width="1.5" stroke-linecap="round" stroke-linejoin="round"/>
</g>
<path opacity="0.4" d="M4.22754 30.0042L12.0334 24.7634C13.2842 23.9242 15.0892 24.0192 16.2134 24.9851L16.7359 25.4442C17.9709 26.5051 19.9659 26.5051 21.2009 25.4442L27.7875 19.7917C29.0225 18.7309 31.0175 18.7309 32.2525 19.7917L34.8334 22.0084" stroke="#292D32" stroke-width="1.5" stroke-linecap="round" stroke-linejoin="round"/>
</svg>
