<svg width="60" height="50" viewBox="0 0 60 50" fill="none" xmlns="http://www.w3.org/2000/svg">
<path d="M58.976 2.19345e-05L59.4336 16.0523C59.6045 22.0499 58.7058 27.6072 56.7374 32.7242C54.769 37.8411 51.3352 43.0588 46.436 48.377L37.0753 41.4056C39.9256 38.382 42.0768 35.5548 43.5288 32.9241C44.9808 30.2935 45.9029 27.6191 46.2953 24.9009L35.0282 25.2221L34.3293 0.702632L58.976 2.19345e-05ZM24.6466 0.978658L25.1042 17.031C25.2752 23.0285 24.3765 28.5858 22.4081 33.7028C20.4396 38.8198 17.0058 44.0374 12.1066 49.3556L2.74597 42.3842C5.59628 39.3606 7.74745 36.5335 9.19944 33.9028C10.6514 31.2721 11.5736 28.5977 11.966 25.8795L0.698902 26.2007L-8.04678e-05 1.68127L24.6466 0.978658Z" fill="#E9E9E9"/>
</svg>
