<svg width="216" height="24" viewBox="0 0 216 24" fill="none" xmlns="http://www.w3.org/2000/svg">
<path d="M0.824 11.592V0.456H3.896V11.4C3.896 12.664 4.232 13.632 4.904 14.304C5.576 14.976 6.528 15.312 7.76 15.312C9.008 15.312 9.968 14.976 10.64 14.304C11.312 13.616 11.648 12.648 11.648 11.4V0.456H14.72V11.592C14.72 12.952 14.432 14.136 13.856 15.144C13.296 16.136 12.496 16.912 11.456 17.472C10.416 18.016 9.184 18.288 7.76 18.288C6.352 18.288 5.128 18.016 4.088 17.472C3.048 16.928 2.24 16.152 1.664 15.144C1.104 14.136 0.824 12.952 0.824 11.592ZM21.1147 18H18.1867V6.144H20.8987L21.1387 7.68C21.5067 7.088 22.0267 6.624 22.6987 6.288C23.3867 5.952 24.1307 5.784 24.9307 5.784C26.4187 5.784 27.5387 6.224 28.2907 7.104C29.0587 7.984 29.4427 9.184 29.4427 10.704V18H26.5147V11.4C26.5147 10.408 26.2907 9.672 25.8427 9.192C25.3947 8.696 24.7867 8.448 24.0187 8.448C23.1067 8.448 22.3947 8.736 21.8827 9.312C21.3707 9.888 21.1147 10.656 21.1147 11.616V18ZM32.4395 18V6.144H35.3675V18H32.4395ZM33.8795 3.768C33.3835 3.768 32.9595 3.6 32.6075 3.264C32.2715 2.912 32.1035 2.488 32.1035 1.992C32.1035 1.496 32.2715 1.08 32.6075 0.743999C32.9595 0.408 33.3835 0.24 33.8795 0.24C34.3755 0.24 34.7915 0.408 35.1275 0.743999C35.4795 1.08 35.6555 1.496 35.6555 1.992C35.6555 2.488 35.4795 2.912 35.1275 3.264C34.7915 3.6 34.3755 3.768 33.8795 3.768ZM41.4646 18H38.5606V0.144H41.4646V18ZM48.1841 18.312C46.9361 18.312 45.9441 17.976 45.2081 17.304C44.4881 16.616 44.1281 15.72 44.1281 14.616C44.1281 13.528 44.5041 12.664 45.2561 12.024C46.0241 11.368 47.1121 10.984 48.5201 10.872L52.0721 10.584V10.32C52.0721 9.776 51.9681 9.344 51.7601 9.024C51.5681 8.688 51.2881 8.448 50.9201 8.304C50.5521 8.144 50.1201 8.064 49.6241 8.064C48.7601 8.064 48.0961 8.24 47.6321 8.592C47.1681 8.928 46.9361 9.408 46.9361 10.032H44.4401C44.4401 9.168 44.6561 8.424 45.0881 7.8C45.5361 7.16 46.1601 6.664 46.9601 6.312C47.7761 5.96 48.7121 5.784 49.7681 5.784C50.8401 5.784 51.7601 5.976 52.5281 6.36C53.2961 6.728 53.8881 7.288 54.3041 8.04C54.7201 8.776 54.9281 9.696 54.9281 10.8V18H52.3601L52.1441 16.248C51.8881 16.856 51.3921 17.352 50.6561 17.736C49.9361 18.12 49.1121 18.312 48.1841 18.312ZM49.1201 16.104C50.0321 16.104 50.7521 15.848 51.2801 15.336C51.8241 14.824 52.0961 14.112 52.0961 13.2V12.576L49.6241 12.768C48.7121 12.848 48.0641 13.04 47.6801 13.344C47.2961 13.632 47.1041 14.016 47.1041 14.496C47.1041 15.024 47.2801 15.424 47.6321 15.696C47.9841 15.968 48.4801 16.104 49.1201 16.104ZM57.2525 11.808C57.2525 10.656 57.4845 9.632 57.9485 8.736C58.4285 7.824 59.0925 7.104 59.9405 6.576C60.7885 6.048 61.7725 5.784 62.8925 5.784C63.9005 5.784 64.7645 6.008 65.4845 6.456C66.2045 6.888 66.7085 7.496 66.9965 8.28L66.6845 8.544L66.9245 6.144H69.6365V17.4C69.6365 18.712 69.3805 19.848 68.8685 20.808C68.3725 21.784 67.6605 22.528 66.7325 23.04C65.8205 23.568 64.7165 23.832 63.4205 23.832C61.7245 23.832 60.3325 23.376 59.2445 22.464C58.1565 21.552 57.5165 20.304 57.3245 18.72H60.2525C60.3485 19.488 60.6685 20.088 61.2125 20.52C61.7725 20.952 62.5085 21.168 63.4205 21.168C64.4285 21.168 65.2285 20.872 65.8205 20.28C66.4285 19.704 66.7325 18.92 66.7325 17.928V14.976L67.0685 15.288C66.7805 16.04 66.2525 16.64 65.4845 17.088C64.7165 17.536 63.8285 17.76 62.8205 17.76C61.7005 17.76 60.7245 17.504 59.8925 16.992C59.0605 16.48 58.4125 15.776 57.9485 14.88C57.4845 13.984 57.2525 12.96 57.2525 11.808ZM60.2045 11.736C60.2045 12.408 60.3325 13.008 60.5885 13.536C60.8605 14.048 61.2365 14.456 61.7165 14.76C62.1965 15.064 62.7565 15.216 63.3965 15.216C64.0685 15.216 64.6445 15.072 65.1245 14.784C65.6205 14.48 65.9965 14.072 66.2525 13.56C66.5245 13.032 66.6605 12.424 66.6605 11.736C66.6605 11.048 66.5325 10.456 66.2765 9.96C66.0205 9.448 65.6445 9.048 65.1485 8.76C64.6685 8.472 64.0845 8.328 63.3965 8.328C62.7405 8.328 62.1725 8.48 61.6925 8.784C61.2125 9.072 60.8445 9.472 60.5885 9.984C60.3325 10.496 60.2045 11.08 60.2045 11.736ZM90.7034 18H79.8074V0.456H90.7034V3.288H81.7994L82.8794 2.304V7.8H89.8874V10.512H82.8794V16.152L81.7994 15.168H90.7034V18ZM96.6266 18H93.6986V6.144H96.4106L96.6506 7.68C97.0186 7.088 97.5386 6.624 98.2106 6.288C98.8986 5.952 99.6426 5.784 100.443 5.784C101.931 5.784 103.051 6.224 103.803 7.104C104.571 7.984 104.955 9.184 104.955 10.704V18H102.027V11.4C102.027 10.408 101.803 9.672 101.355 9.192C100.907 8.696 100.299 8.448 99.5306 8.448C98.6186 8.448 97.9066 8.736 97.3946 9.312C96.8826 9.888 96.6266 10.656 96.6266 11.616V18ZM113.255 18.312C112.087 18.312 111.047 18.048 110.135 17.52C109.239 16.976 108.535 16.24 108.023 15.312C107.511 14.368 107.255 13.288 107.255 12.072C107.255 10.84 107.503 9.752 107.999 8.808C108.495 7.864 109.191 7.128 110.087 6.6C110.983 6.056 112.007 5.784 113.159 5.784C114.359 5.784 115.391 6.04 116.255 6.552C117.119 7.048 117.783 7.744 118.247 8.64C118.727 9.536 118.967 10.608 118.967 11.856V12.744L108.791 12.768L108.839 10.896H116.063C116.063 10.08 115.799 9.424 115.271 8.928C114.759 8.432 114.063 8.184 113.183 8.184C112.495 8.184 111.911 8.328 111.431 8.616C110.967 8.904 110.615 9.336 110.375 9.912C110.135 10.488 110.015 11.192 110.015 12.024C110.015 13.304 110.287 14.272 110.831 14.928C111.391 15.584 112.215 15.912 113.303 15.912C114.103 15.912 114.759 15.76 115.271 15.456C115.799 15.152 116.143 14.72 116.303 14.16H119.015C118.759 15.456 118.119 16.472 117.095 17.208C116.087 17.944 114.807 18.312 113.255 18.312ZM128.871 6.096V8.808H127.791C126.719 8.808 125.879 9.096 125.271 9.672C124.663 10.232 124.359 11.088 124.359 12.24V18H121.431V6.168H124.191L124.431 8.616H124.143C124.303 7.832 124.679 7.192 125.271 6.696C125.863 6.2 126.631 5.952 127.575 5.952C127.783 5.952 127.991 5.96 128.199 5.976C128.407 5.992 128.631 6.032 128.871 6.096ZM129.996 11.808C129.996 10.656 130.228 9.632 130.692 8.736C131.172 7.824 131.836 7.104 132.684 6.576C133.532 6.048 134.516 5.784 135.636 5.784C136.644 5.784 137.508 6.008 138.228 6.456C138.948 6.888 139.452 7.496 139.74 8.28L139.428 8.544L139.668 6.144H142.38V17.4C142.38 18.712 142.124 19.848 141.612 20.808C141.116 21.784 140.404 22.528 139.476 23.04C138.564 23.568 137.46 23.832 136.164 23.832C134.468 23.832 133.076 23.376 131.988 22.464C130.9 21.552 130.26 20.304 130.068 18.72H132.996C133.092 19.488 133.412 20.088 133.956 20.52C134.516 20.952 135.252 21.168 136.164 21.168C137.172 21.168 137.972 20.872 138.564 20.28C139.172 19.704 139.476 18.92 139.476 17.928V14.976L139.812 15.288C139.524 16.04 138.996 16.64 138.228 17.088C137.46 17.536 136.572 17.76 135.564 17.76C134.444 17.76 133.468 17.504 132.636 16.992C131.804 16.48 131.156 15.776 130.692 14.88C130.228 13.984 129.996 12.96 129.996 11.808ZM132.948 11.736C132.948 12.408 133.076 13.008 133.332 13.536C133.604 14.048 133.98 14.456 134.46 14.76C134.94 15.064 135.5 15.216 136.14 15.216C136.812 15.216 137.388 15.072 137.868 14.784C138.364 14.48 138.74 14.072 138.996 13.56C139.268 13.032 139.404 12.424 139.404 11.736C139.404 11.048 139.276 10.456 139.02 9.96C138.764 9.448 138.388 9.048 137.892 8.76C137.412 8.472 136.828 8.328 136.14 8.328C135.484 8.328 134.916 8.48 134.436 8.784C133.956 9.072 133.588 9.472 133.332 9.984C133.076 10.496 132.948 11.08 132.948 11.736ZM147.282 6.144L151.146 17.088L149.562 20.088L144.186 6.144H147.282ZM144.498 23.496V21.072H146.25C146.634 21.072 146.97 21.024 147.258 20.928C147.546 20.848 147.802 20.688 148.026 20.448C148.266 20.208 148.466 19.856 148.626 19.392L153.546 6.144H156.57L150.762 20.64C150.33 21.728 149.786 22.52 149.13 23.016C148.474 23.512 147.658 23.76 146.682 23.76C146.266 23.76 145.874 23.736 145.506 23.688C145.154 23.656 144.818 23.592 144.498 23.496ZM172.79 18.288C171.078 18.288 169.59 17.92 168.326 17.184C167.078 16.432 166.102 15.384 165.398 14.04C164.71 12.68 164.366 11.08 164.366 9.24C164.366 7.416 164.718 5.824 165.422 4.464C166.142 3.104 167.15 2.048 168.446 1.296C169.742 0.543999 171.238 0.167999 172.934 0.167999C174.326 0.167999 175.574 0.423999 176.678 0.935999C177.782 1.448 178.694 2.168 179.414 3.096C180.134 4.008 180.59 5.096 180.782 6.36H177.542C177.238 5.336 176.67 4.544 175.838 3.984C175.022 3.408 174.022 3.12 172.838 3.12C171.782 3.12 170.854 3.368 170.054 3.864C169.27 4.36 168.662 5.064 168.23 5.976C167.798 6.888 167.582 7.976 167.582 9.24C167.582 10.456 167.798 11.528 168.23 12.456C168.662 13.368 169.27 14.08 170.054 14.592C170.854 15.088 171.782 15.336 172.838 15.336C174.038 15.336 175.062 15.048 175.91 14.472C176.774 13.896 177.35 13.12 177.638 12.144H180.83C180.606 13.36 180.118 14.432 179.366 15.36C178.63 16.288 177.694 17.008 176.558 17.52C175.438 18.032 174.182 18.288 172.79 18.288ZM186.108 18H183.204V0.144H186.108V18ZM197.339 6.144H200.267V18H197.555L197.339 16.416C196.987 16.976 196.459 17.432 195.755 17.784C195.051 18.136 194.299 18.312 193.499 18.312C192.139 18.312 191.075 17.88 190.307 17.016C189.539 16.152 189.155 15 189.155 13.56V6.144H192.083V12.528C192.083 13.648 192.299 14.456 192.731 14.952C193.163 15.448 193.787 15.696 194.603 15.696C195.531 15.696 196.219 15.424 196.667 14.88C197.115 14.32 197.339 13.48 197.339 12.36V6.144ZM206.123 18H203.411V0.144H206.339V7.872C206.723 7.2 207.283 6.688 208.019 6.336C208.755 5.968 209.579 5.784 210.491 5.784C211.627 5.784 212.595 6.056 213.395 6.6C214.211 7.128 214.835 7.872 215.267 8.832C215.715 9.792 215.939 10.904 215.939 12.168C215.939 13.368 215.707 14.432 215.243 15.36C214.779 16.288 214.123 17.016 213.275 17.544C212.427 18.056 211.435 18.312 210.299 18.312C209.419 18.312 208.619 18.12 207.899 17.736C207.195 17.352 206.667 16.824 206.315 16.152L206.123 18ZM206.363 12.024C206.363 12.728 206.499 13.36 206.771 13.92C207.043 14.464 207.427 14.888 207.923 15.192C208.435 15.48 209.027 15.624 209.699 15.624C210.387 15.624 210.979 15.472 211.475 15.168C211.971 14.864 212.347 14.44 212.603 13.896C212.859 13.352 212.987 12.728 212.987 12.024C212.987 11.32 212.859 10.696 212.603 10.152C212.347 9.608 211.971 9.184 211.475 8.88C210.979 8.56 210.387 8.4 209.699 8.4C209.027 8.4 208.435 8.56 207.923 8.88C207.427 9.184 207.043 9.608 206.771 10.152C206.499 10.68 206.363 11.304 206.363 12.024Z" fill="#212121"/>
</svg>
