<svg width="175" height="27" viewBox="0 0 175 27" fill="none" xmlns="http://www.w3.org/2000/svg">
<path d="M22.9957 16.9249V16.0627V14.9007V9.39056V8.22855L23.8953 6.35435L28.3934 2.79336C28.9931 2.30607 29.8927 2.71839 29.8927 3.50556V20.5983C29.8927 21.3855 28.9556 21.7978 28.3559 21.3105L22.9957 16.9249Z" fill="#00AC47"/>
<path d="M8.07572 0.169678L0.80381 7.44159H8.07572V0.169678Z" fill="#EA4335"/>
<path d="M8.07561 7.479H0.803696V16.9625H8.07561V7.479Z" fill="#2684FC"/>
<path d="M0.803696 16.9252V21.7981C0.803696 23.1475 1.89073 24.2346 3.24016 24.2346H8.11309V16.9627H0.803696V16.9252Z" fill="#0066DA"/>
<path d="M23.9297 2.56866C23.9297 1.25672 22.8427 0.169678 21.5682 0.169678H16.8077H8.07396V7.44159H16.9952V12.2021L23.9297 11.9772V2.56866Z" fill="#FFBA00"/>
<path d="M16.9952 16.9253H8.07396V24.1972H16.7703H21.5307C22.8427 24.1972 23.8922 23.1101 23.8922 21.7982V12.2023H16.9952V16.9253Z" fill="#00AC47"/>
<path d="M23.9319 6.39185V17.6746L16.9974 12.2019L23.9319 6.39185Z" fill="#00832D"/>
<path d="M126.112 21.0107H123.976V4.33032H126.112L131.922 14.4885H131.997L137.807 4.33032H139.944V21.0107H137.807V11.1149L137.882 8.30364H137.807L132.597 17.4498H131.323L126.112 8.30364H126.037L126.112 11.1149V21.0107Z" fill="#5F6368"/>
<path d="M148.081 21.3855C146.394 21.3855 145.008 20.8232 143.92 19.6612C142.833 18.4992 142.271 17.0748 142.271 15.313C142.271 13.5888 142.796 12.1269 143.846 10.9649C144.895 9.80287 146.244 9.20312 147.894 9.20312C149.581 9.20312 150.93 9.76538 151.942 10.8524C152.954 11.9395 153.441 13.4763 153.441 15.463L153.404 15.6879H144.445C144.483 16.8124 144.858 17.712 145.57 18.3867C146.282 19.0614 147.144 19.3988 148.119 19.3988C149.468 19.3988 150.555 18.7241 151.342 17.3372L153.254 18.2743C152.729 19.2489 152.017 19.9985 151.117 20.5233C150.255 21.1231 149.243 21.3855 148.081 21.3855ZM144.67 13.9261H151.192C151.117 13.139 150.818 12.4642 150.218 11.9769C149.656 11.4522 148.868 11.1898 147.894 11.1898C147.069 11.1898 146.394 11.4522 145.795 11.9395C145.232 12.4268 144.858 13.1015 144.67 13.9261Z" fill="#5F6368"/>
<path d="M160.675 21.3855C158.988 21.3855 157.601 20.8232 156.514 19.6612C155.427 18.4992 154.865 17.0748 154.865 15.313C154.865 13.5888 155.389 12.1269 156.439 10.9649C157.488 9.80287 158.838 9.20312 160.487 9.20312C162.174 9.20312 163.523 9.76538 164.535 10.8524C165.548 11.9395 166.035 13.4763 166.035 15.463L165.997 15.6879H157.039C157.076 16.8124 157.451 17.712 158.163 18.3867C158.875 19.0614 159.737 19.3988 160.712 19.3988C162.062 19.3988 163.149 18.7241 163.936 17.3372L165.847 18.2743C165.323 19.2489 164.61 19.9985 163.711 20.5233C162.886 21.1231 161.837 21.3855 160.675 21.3855ZM157.264 13.9261H163.823C163.748 13.139 163.448 12.4642 162.849 11.9769C162.286 11.4522 161.499 11.1898 160.525 11.1898C159.7 11.1898 159.025 11.4522 158.426 11.9395C157.826 12.4268 157.451 13.1015 157.264 13.9261Z" fill="#5F6368"/>
<path d="M172.257 21.1979C171.32 21.1979 170.533 20.898 169.933 20.3358C169.333 19.7735 169.033 18.9488 168.996 17.9368V11.5645H167.009V9.57782H168.996V6.0918H171.133V9.57782H173.944V11.527H171.133V17.2246C171.133 17.9742 171.282 18.499 171.582 18.7989C171.882 19.0613 172.22 19.2112 172.594 19.2112C172.782 19.2112 172.932 19.2112 173.082 19.1737C173.269 19.1363 173.419 19.0613 173.531 19.0238L174.206 20.9355C173.644 21.0854 172.969 21.1979 172.257 21.1979Z" fill="#5F6368"/>
<path d="M53.2815 13.9637V11.4148H61.8279C61.9028 11.8646 61.9778 12.3894 61.9778 12.9891C61.9778 14.9008 61.453 17.2623 59.7662 18.9491C58.1169 20.6733 56.0178 21.573 53.244 21.573C48.1087 21.573 43.798 17.3747 43.798 12.2394C43.798 7.1041 48.1087 2.90588 53.244 2.90588C56.0928 2.90588 58.1169 4.03041 59.6163 5.49229L57.8171 7.29152C56.73 6.27945 55.2307 5.4548 53.2065 5.4548C49.4581 5.4548 46.5344 8.49101 46.5344 12.2394C46.5344 15.9878 49.4581 19.024 53.2065 19.024C55.643 19.024 57.0299 18.0495 57.9295 17.1498C58.6417 16.4376 59.129 15.3881 59.3164 13.9637H53.2815Z" fill="#5F6368"/>
<path d="M74.9475 15.5381C74.9475 18.9866 72.2486 21.5356 68.9126 21.5356C65.5765 21.5356 62.8776 18.9866 62.8776 15.5381C62.8776 12.0521 65.5765 9.54065 68.9126 9.54065C72.2112 9.54065 74.9475 12.0521 74.9475 15.5381ZM72.2861 15.5381C72.2861 13.364 70.7118 11.9021 68.9126 11.9021C67.0758 11.9021 65.539 13.364 65.539 15.5381C65.539 17.6747 67.1133 19.1741 68.9126 19.1741C70.7118 19.1741 72.2861 17.6747 72.2861 15.5381Z" fill="#5F6368"/>
<path d="M88.0636 15.5381C88.0636 18.9866 85.3647 21.5356 82.0287 21.5356C78.6926 21.5356 75.9937 18.9866 75.9937 15.5381C75.9937 12.0521 78.6926 9.54065 82.0287 9.54065C85.3647 9.54065 88.0636 12.0521 88.0636 15.5381ZM85.4397 15.5381C85.4397 13.364 83.8654 11.9021 82.0662 11.9021C80.2294 11.9021 78.6926 13.364 78.6926 15.5381C78.6926 17.6747 80.2669 19.1741 82.0662 19.1741C83.8654 19.1741 85.4397 17.6747 85.4397 15.5381Z" fill="#5F6368"/>
<path d="M100.698 9.8774V20.6728C100.698 25.0959 98.0737 26.9327 95 26.9327C92.0762 26.9327 90.352 24.9835 89.6772 23.3717L91.9638 22.4346C92.3761 23.4092 93.3882 24.5712 95 24.5712C96.9866 24.5712 98.2236 23.3342 98.2236 21.0477V20.1855H98.1486C97.5489 20.8977 96.4244 21.5349 95 21.5349C92.0013 21.5349 89.2274 18.9111 89.2274 15.5375C89.2274 12.1639 91.9638 9.50256 95 9.50256C96.4244 9.50256 97.5864 10.1398 98.1486 10.852H98.2236V9.8774H100.698ZM98.3735 15.5375C98.3735 13.4384 96.9492 11.8641 95.1499 11.8641C93.3132 11.8641 91.8138 13.4009 91.8138 15.5375C91.8138 17.6366 93.3507 19.1735 95.1499 19.1735C96.9492 19.1735 98.3735 17.6366 98.3735 15.5375Z" fill="#5F6368"/>
<path d="M105.159 3.58057V21.1606H102.535V3.58057H105.159Z" fill="#5F6368"/>
<path d="M115.352 17.5248L117.414 18.8742C116.739 19.8488 115.165 21.5356 112.429 21.5356C109.018 21.5356 106.469 18.9117 106.469 15.5381C106.469 11.9771 109.055 9.54065 112.129 9.54065C115.24 9.54065 116.777 12.0146 117.264 13.364L117.527 14.0387L109.505 17.3748C110.105 18.5743 111.079 19.2115 112.429 19.2115C113.703 19.1741 114.64 18.4994 115.352 17.5248ZM109.018 15.3507L114.378 13.1391C114.078 12.3894 113.178 11.8647 112.166 11.8647C110.817 11.8272 108.98 13.0267 109.018 15.3507Z" fill="#5F6368"/>
</svg>
