<svg width="20" height="20" viewBox="0 0 20 20" fill="none" xmlns="http://www.w3.org/2000/svg">
<path d="M5.17786 19.9978H2.05286C0.948287 19.9978 0.0528564 19.1024 0.0528564 17.9978V10.1409C0.0528564 9.60318 0.269384 9.08811 0.653588 8.7119L2.30212 7.09766C2.68633 6.72145 2.90286 6.20638 2.90286 5.66866V2.32338H5.27786V4.18385L8.15359 1.36795C8.9311 0.606625 10.1746 0.606625 10.9521 1.36795L18.4521 8.7119C18.8363 9.08811 19.0529 9.60318 19.0529 10.1409V17.9978C19.0529 19.1024 18.1574 19.9978 17.0529 19.9978H13.9279C12.8233 19.9978 11.9279 19.1024 11.9279 17.9978V16.4164C11.9279 15.3118 11.0324 14.4164 9.92786 14.4164H9.17786C8.07329 14.4164 7.17786 15.3118 7.17786 16.4164V17.9978C7.17786 19.1024 6.28243 19.9978 5.17786 19.9978Z" fill="#1E1E1E"/>
</svg>
