<svg width="27" height="26" viewBox="0 0 27 26" fill="none" xmlns="http://www.w3.org/2000/svg">
<path d="M20.6588 17.617C20.6588 17.2829 20.388 17.0121 20.0539 17.0121H15.8331C15.9228 14.8284 16.4755 12.6133 17.0117 10.4651C17.6153 8.04734 18.2394 5.54731 18.2394 3.02022C18.2394 1.35268 16.8828 -0.00396729 15.2152 -0.00396729H3.03786C1.37032 -0.00396729 0.0136719 1.35268 0.0136719 3.02022C0.0136719 3.35425 0.284478 3.62506 0.618509 3.62506H4.83975C4.74995 5.80872 4.19701 8.02396 3.66072 10.1721C3.05713 12.5898 2.43302 15.0899 2.43302 17.617C2.43302 19.2845 3.78967 20.6411 5.45721 20.6411H17.6346C19.3021 20.6411 20.6588 19.2845 20.6588 17.617ZM1.32697 2.41538C1.57661 1.71131 2.24931 1.20571 3.03786 1.20571C3.8264 1.20571 4.4991 1.71131 4.74874 2.41538H1.32697ZM3.64269 17.617C3.64269 15.2386 4.2485 12.8119 4.83435 10.4651C5.43793 8.04734 6.06204 5.54731 6.06204 3.02022C6.06204 2.33994 5.83612 1.71151 5.45555 1.20571H15.2152C16.2158 1.20571 17.0298 2.0197 17.0298 3.02022C17.0298 5.3986 16.424 7.82529 15.8381 10.1721C15.2827 12.3968 14.7104 14.6912 14.6224 17.0121H7.87656C7.54252 17.0121 7.27172 17.2829 7.27172 17.617C7.27172 18.6175 6.45773 19.4315 5.45721 19.4315C4.45669 19.4315 3.64269 18.6175 3.64269 17.617ZM17.6346 19.4315H7.8743C8.13914 19.0796 8.32954 18.6686 8.42063 18.2218H19.3451C19.0954 18.9258 18.4231 19.4315 17.6346 19.4315Z" fill="#1E1E1E"/>
<path d="M7.87669 6.04506H15.0136C15.3476 6.04506 15.6184 5.77426 15.6184 5.44023C15.6184 5.10619 15.3476 4.83539 15.0136 4.83539H7.87669C7.54266 4.83539 7.27185 5.10619 7.27185 5.44023C7.27185 5.77426 7.54266 6.04506 7.87669 6.04506Z" fill="#555555"/>
<path d="M7.30686 8.46419H14.5268C14.8608 8.46419 15.1316 8.19339 15.1316 7.85935C15.1316 7.52532 14.8608 7.25452 14.5268 7.25452H7.30686C6.97283 7.25452 6.70203 7.52532 6.70203 7.85935C6.70203 8.19339 6.97283 8.46419 7.30686 8.46419Z" fill="#555555"/>
<path d="M6.73704 10.8831H13.9254C14.2595 10.8831 14.5303 10.6123 14.5303 10.2783C14.5303 9.94427 14.2595 9.67346 13.9254 9.67346H6.73704C6.40301 9.67346 6.1322 9.94427 6.1322 10.2783C6.1322 10.6123 6.40301 10.8831 6.73704 10.8831Z" fill="#555555"/>
<path d="M6.16721 13.3034H13.3872C13.7212 13.3034 13.992 13.0326 13.992 12.6986C13.992 12.3646 13.7212 12.0938 13.3872 12.0938H6.16721C5.83318 12.0938 5.56238 12.3646 5.56238 12.6986C5.56238 13.0326 5.83318 13.3034 6.16721 13.3034Z" fill="#555555"/>
<circle cx="18.722" cy="18.1586" r="6.73835" transform="rotate(-60 18.722 18.1586)" fill="#1E1E1E" stroke="#F4F4F4" stroke-width="2"/>
<path d="M18.9868 14.8979C17.2493 14.8979 15.8453 16.3055 15.8453 18.0413H14.7975L16.1578 19.4016L16.1823 19.4523L17.5916 18.0413H16.5438C16.5438 16.6914 17.6387 15.5965 18.9886 15.5965C20.3385 15.5965 21.4334 16.6914 21.4334 18.0413C21.4334 19.3912 20.3385 20.4861 18.9886 20.4861C18.3128 20.4861 17.7033 20.2102 17.2615 19.7684L16.7673 20.2626C17.3349 20.8319 18.1189 21.1846 18.9868 21.1846C20.7244 21.1846 22.1319 19.7771 22.1319 18.0413C22.1319 16.3055 20.7244 14.8979 18.9868 14.8979Z" fill="white"/>
<path d="M18.636 16.6441V18.3867L20.1277 19.272L20.3786 18.8485L19.1588 18.1253V16.6441H18.636Z" fill="white"/>
</svg>
